<svg width="14" height="12" viewBox="0 0 14 12" fill="none" xmlns="http://www.w3.org/2000/svg">
<path d="M7.89407 1.53669L7.8943 1.53645C9.10802 0.309689 11.0437 0.138568 12.3204 1.20411C13.8106 2.45003 13.8895 4.68704 12.5536 6.03754L12.5535 6.03764L7.26269 11.3892C7.26265 11.3893 7.26262 11.3893 7.26259 11.3893C7.11652 11.5369 6.88115 11.5369 6.73508 11.3893C6.73504 11.3893 6.73501 11.3893 6.73498 11.3892L1.44437 6.03785C0.11086 4.68739 0.18976 2.45025 1.67983 1.20425C2.95673 0.138415 4.89503 0.309927 6.10575 1.5361L6.10633 1.53669L6.64499 2.08043L7.0002 2.43898L7.35541 2.08043L7.89407 1.53669Z" stroke="#46178F"/>
</svg>
