<svg width="47" height="18" viewBox="0 0 47 18" fill="none" xmlns="http://www.w3.org/2000/svg">
<g clip-path="url(#clip0_21_17)">
<path d="M3.88853 5.35182L3.2688 0.391296" stroke="white"/>
<path d="M2.41418 5.08247L0.864746 0.130432" stroke="white"/>
<path d="M0.283691 8.14016V4.5369H9.92774H12.8629V8.14016H12.0243L11.3953 17.6224H1.75127L0.912651 8.14016H0.283691Z" fill="#F76D66"/>
<path d="M0.912651 8.14016H12.0243M0.912651 8.14016H0.283691V4.5369H9.92774H12.8629V8.14016H12.0243H0.912651ZM0.912651 8.14016L1.75127 17.6224H11.3953L12.0243 8.14016H0.912651Z" stroke="white"/>
<path d="M19.4765 10.2059C19.4765 10.4786 19.405 10.7343 19.262 10.9729C19.1243 11.2115 18.9047 11.4038 18.6029 11.5499C18.3063 11.696 17.9305 11.769 17.4751 11.769H16.5459V13.7266H15.4341V8.62817H17.4751C17.904 8.62817 18.2693 8.69635 18.5711 8.8327C18.8729 8.96904 19.098 9.15653 19.2462 9.39513C19.3997 9.63373 19.4765 9.904 19.4765 10.2059ZM17.4275 10.9437C17.7345 10.9437 17.9623 10.8804 18.1105 10.7537C18.2587 10.6223 18.3328 10.4397 18.3328 10.2059C18.3328 9.70922 18.0311 9.46087 17.4275 9.46087H16.5459V10.9437H17.4275ZM21.3777 10.3082C21.5206 10.0939 21.706 9.92591 21.9336 9.80417C22.1666 9.68244 22.4314 9.62157 22.7278 9.62157V10.6953H22.4339C22.0845 10.6953 21.8199 10.7708 21.6398 10.9217C21.465 11.0727 21.3777 11.3356 21.3777 11.7106V13.7266H20.2658V9.68H21.3777V10.3082ZM24.0406 9.19791C23.8448 9.19791 23.6805 9.14192 23.5482 9.02991C23.4211 8.91304 23.3576 8.7694 23.3576 8.59896C23.3576 8.42852 23.4211 8.28731 23.5482 8.1753C23.6805 8.05844 23.8448 8 24.0406 8C24.2365 8 24.398 8.05844 24.5251 8.1753C24.6574 8.28731 24.7236 8.42852 24.7236 8.59896C24.7236 8.7694 24.6574 8.91304 24.5251 9.02991C24.398 9.14192 24.2365 9.19791 24.0406 9.19791ZM24.5886 9.68V13.7266H23.4767V9.68H24.5886ZM25.4012 11.7033C25.4012 11.2845 25.4938 10.9193 25.6792 10.6077C25.8645 10.2911 26.1212 10.0477 26.4495 9.87722C26.7778 9.70191 27.1537 9.61426 27.5773 9.61426C28.1226 9.61426 28.5727 9.74087 28.9274 9.99409C29.2875 10.2424 29.5283 10.593 29.6501 11.0459H28.4509C28.3873 10.8706 28.2788 10.7343 28.1253 10.6369C27.9771 10.5346 27.7917 10.4835 27.5693 10.4835C27.2517 10.4835 27.0002 10.5906 26.8149 10.8049C26.6295 11.0143 26.5369 11.3137 26.5369 11.7033C26.5369 12.088 26.6295 12.3875 26.8149 12.6017C27.0002 12.8111 27.2517 12.9158 27.5693 12.9158C28.0193 12.9158 28.3132 12.7307 28.4509 12.3607H29.6501C29.5283 12.799 29.2875 13.1471 28.9274 13.4052C28.5673 13.6633 28.1173 13.7923 27.5773 13.7923C27.1537 13.7923 26.7778 13.7072 26.4495 13.5367C26.1212 13.3614 25.8645 13.1179 25.6792 12.8063C25.4938 12.4897 25.4012 12.1221 25.4012 11.7033ZM34.5546 11.6157C34.5546 11.7617 34.5441 11.8932 34.5228 12.0101H31.3064C31.3329 12.3023 31.4441 12.5311 31.6399 12.6967C31.8359 12.8622 32.0767 12.945 32.3626 12.945C32.7756 12.945 33.0695 12.7819 33.2442 12.4557H34.4434C34.3163 12.8453 34.0728 13.1667 33.7127 13.4198C33.3528 13.6682 32.9106 13.7923 32.3865 13.7923C31.963 13.7923 31.5818 13.7072 31.2428 13.5367C30.9093 13.3614 30.6472 13.1155 30.4566 12.799C30.2714 12.4824 30.1786 12.1172 30.1786 11.7033C30.1786 11.2845 30.2714 10.9169 30.4566 10.6003C30.642 10.2838 30.9013 10.0404 31.2349 9.86991C31.5685 9.69947 31.9524 9.61426 32.3865 9.61426C32.8048 9.61426 33.1781 9.69705 33.5063 9.86261C33.8398 10.0282 34.0966 10.2643 34.2766 10.5711C34.462 10.873 34.5546 11.2212 34.5546 11.6157ZM33.403 11.3235C33.3978 11.0605 33.2945 10.8511 33.0933 10.6953C32.8922 10.5346 32.646 10.4543 32.3547 10.4543C32.0794 10.4543 31.8464 10.5322 31.6558 10.688C31.4706 10.839 31.3567 11.0508 31.3143 11.3235H33.403ZM38.5112 11.1117C38.8236 11.1652 39.0803 11.3089 39.2815 11.5426C39.4828 11.7763 39.5833 12.0442 39.5833 12.3461C39.5833 12.6188 39.5091 12.8599 39.3609 13.0692C39.218 13.2737 39.0088 13.4344 38.7335 13.5513C38.4583 13.6682 38.1327 13.7266 37.7567 13.7266H35.3662V8.62817H37.6535C38.0294 8.62817 38.3523 8.68417 38.6224 8.79617C38.8976 8.90818 39.1041 9.064 39.2418 9.26365C39.3848 9.46331 39.4562 9.68974 39.4562 9.94296C39.4562 10.24 39.3689 10.4883 39.1942 10.688C39.0247 10.8877 38.7971 11.0289 38.5112 11.1117ZM36.4781 10.7318H37.4946C37.7594 10.7318 37.9632 10.6783 38.1061 10.5711C38.2491 10.4591 38.3206 10.3009 38.3206 10.0963C38.3206 9.89183 38.2491 9.73357 38.1061 9.62157C37.9632 9.50956 37.7594 9.45356 37.4946 9.45356H36.4781V10.7318ZM37.5979 12.8939C37.8679 12.8939 38.0771 12.8355 38.2253 12.7186C38.3789 12.6017 38.4556 12.4362 38.4556 12.2219C38.4556 12.0028 38.3762 11.8323 38.2173 11.7106C38.0585 11.584 37.8441 11.5207 37.574 11.5207H36.4781V12.8939H37.5979ZM41.0333 9.19791C40.8374 9.19791 40.6733 9.14192 40.5409 9.02991C40.4138 8.91304 40.3503 8.7694 40.3503 8.59896C40.3503 8.42852 40.4138 8.28731 40.5409 8.1753C40.6733 8.05844 40.8374 8 41.0333 8C41.2293 8 41.3906 8.05844 41.5177 8.1753C41.6502 8.28731 41.7163 8.42852 41.7163 8.59896C41.7163 8.7694 41.6502 8.91304 41.5177 9.02991C41.3906 9.14192 41.2293 9.19791 41.0333 9.19791ZM41.5812 9.68V13.7266H40.4694V9.68H41.5812ZM45.1179 9.62157C45.6421 9.62157 46.0657 9.77496 46.3886 10.0817C46.7117 10.3837 46.8731 10.8073 46.8731 11.3527V13.7266H45.7612V11.4915C45.7612 11.1701 45.6738 10.9242 45.4991 10.7537C45.3244 10.5784 45.0861 10.4908 44.7844 10.4908C44.4773 10.4908 44.2338 10.5784 44.0537 10.7537C43.879 10.9242 43.7916 11.1701 43.7916 11.4915V13.7266H42.6798V9.68H43.7916V10.184C43.94 10.0087 44.1279 9.87235 44.3555 9.77496C44.5885 9.6727 44.8426 9.62157 45.1179 9.62157Z" fill="#F76D66"/>
</g>
<defs>
<clipPath id="clip0_21_17">
<rect width="46.8" height="18" fill="white"/>
</clipPath>
</defs>
</svg>
