<svg width="385" height="204" viewBox="0 0 385 204" fill="none" xmlns="http://www.w3.org/2000/svg">
<path d="M64.4192 59.0307L60.0492 21" stroke="#595C88" stroke-width="4"/>
<path d="M54.0229 56.9656L43.0974 19" stroke="#595C88" stroke-width="4"/>
<path d="M39 80.4078V52.7828H107.003H127.699V80.4078H121.786L117.351 153.105H49.3483L43.435 80.4078H39Z" fill="#F76D66"/>
<path d="M169.368 99.008C169.368 101.099 168.864 103.059 167.856 104.888C166.885 106.717 165.336 108.192 163.208 109.312C161.117 110.432 158.467 110.992 155.256 110.992H148.704V126H140.864V86.912H155.256C158.28 86.912 160.856 87.4347 162.984 88.48C165.112 89.5253 166.699 90.9627 167.744 92.792C168.827 94.6213 169.368 96.6933 169.368 99.008ZM154.92 104.664C157.085 104.664 158.691 104.179 159.736 103.208C160.781 102.2 161.304 100.8 161.304 99.008C161.304 95.2 159.176 93.296 154.92 93.296H148.704V104.664H154.92ZM182.774 99.792C183.782 98.1493 185.089 96.8613 186.694 95.928C188.337 94.9947 190.204 94.528 192.294 94.528V102.76H190.222C187.758 102.76 185.892 103.339 184.622 104.496C183.39 105.653 182.774 107.669 182.774 110.544V126H174.934V94.976H182.774V99.792ZM201.551 91.28C200.17 91.28 199.012 90.8507 198.079 89.992C197.183 89.096 196.735 87.9947 196.735 86.688C196.735 85.3813 197.183 84.2987 198.079 83.44C199.012 82.544 200.17 82.096 201.551 82.096C202.932 82.096 204.071 82.544 204.967 83.44C205.9 84.2987 206.367 85.3813 206.367 86.688C206.367 87.9947 205.9 89.096 204.967 89.992C204.071 90.8507 202.932 91.28 201.551 91.28ZM205.415 94.976V126H197.575V94.976H205.415ZM211.145 110.488C211.145 107.277 211.798 104.477 213.105 102.088C214.412 99.6613 216.222 97.7947 218.537 96.488C220.852 95.144 223.502 94.472 226.489 94.472C230.334 94.472 233.508 95.4427 236.009 97.384C238.548 99.288 240.246 101.976 241.105 105.448H232.649C232.201 104.104 231.436 103.059 230.353 102.312C229.308 101.528 228.001 101.136 226.433 101.136C224.193 101.136 222.42 101.957 221.113 103.6C219.806 105.205 219.153 107.501 219.153 110.488C219.153 113.437 219.806 115.733 221.113 117.376C222.42 118.981 224.193 119.784 226.433 119.784C229.606 119.784 231.678 118.365 232.649 115.528H241.105C240.246 118.888 238.548 121.557 236.009 123.536C233.47 125.515 230.297 126.504 226.489 126.504C223.502 126.504 220.852 125.851 218.537 124.544C216.222 123.2 214.412 121.333 213.105 118.944C211.798 116.517 211.145 113.699 211.145 110.488ZM275.688 109.816C275.688 110.936 275.614 111.944 275.464 112.84H252.784C252.971 115.08 253.755 116.835 255.136 118.104C256.518 119.373 258.216 120.008 260.232 120.008C263.144 120.008 265.216 118.757 266.448 116.256H274.904C274.008 119.243 272.291 121.707 269.752 123.648C267.214 125.552 264.096 126.504 260.4 126.504C257.414 126.504 254.726 125.851 252.336 124.544C249.984 123.2 248.136 121.315 246.792 118.888C245.486 116.461 244.832 113.661 244.832 110.488C244.832 107.277 245.486 104.459 246.792 102.032C248.099 99.6053 249.928 97.7387 252.28 96.432C254.632 95.1253 257.339 94.472 260.4 94.472C263.35 94.472 265.982 95.1067 268.296 96.376C270.648 97.6453 272.459 99.456 273.728 101.808C275.035 104.123 275.688 106.792 275.688 109.816ZM267.568 107.576C267.531 105.56 266.803 103.955 265.384 102.76C263.966 101.528 262.23 100.912 260.176 100.912C258.235 100.912 256.592 101.509 255.248 102.704C253.942 103.861 253.139 105.485 252.84 107.576H267.568ZM303.587 105.952C305.79 106.363 307.6 107.464 309.019 109.256C310.438 111.048 311.147 113.101 311.147 115.416C311.147 117.507 310.624 119.355 309.579 120.96C308.571 122.528 307.096 123.76 305.155 124.656C303.214 125.552 300.918 126 298.267 126H281.411V86.912H297.539C300.19 86.912 302.467 87.3413 304.371 88.2C306.312 89.0587 307.768 90.2533 308.739 91.784C309.747 93.3147 310.251 95.0507 310.251 96.992C310.251 99.2693 309.635 101.173 308.403 102.704C307.208 104.235 305.603 105.317 303.587 105.952ZM289.251 103.04H296.419C298.286 103.04 299.723 102.629 300.731 101.808C301.739 100.949 302.243 99.736 302.243 98.168C302.243 96.6 301.739 95.3867 300.731 94.528C299.723 93.6693 298.286 93.24 296.419 93.24H289.251V103.04ZM297.147 119.616C299.051 119.616 300.526 119.168 301.571 118.272C302.654 117.376 303.195 116.107 303.195 114.464C303.195 112.784 302.635 111.477 301.515 110.544C300.395 109.573 298.883 109.088 296.979 109.088H289.251V119.616H297.147ZM321.371 91.28C319.99 91.28 318.833 90.8507 317.899 89.992C317.003 89.096 316.555 87.9947 316.555 86.688C316.555 85.3813 317.003 84.2987 317.899 83.44C318.833 82.544 319.99 82.096 321.371 82.096C322.753 82.096 323.891 82.544 324.787 83.44C325.721 84.2987 326.187 85.3813 326.187 86.688C326.187 87.9947 325.721 89.096 324.787 89.992C323.891 90.8507 322.753 91.28 321.371 91.28ZM325.235 94.976V126H317.395V94.976H325.235ZM350.173 94.528C353.869 94.528 356.856 95.704 359.133 98.056C361.411 100.371 362.549 103.619 362.549 107.8V126H354.709V108.864C354.709 106.4 354.093 104.515 352.861 103.208C351.629 101.864 349.949 101.192 347.821 101.192C345.656 101.192 343.939 101.864 342.669 103.208C341.437 104.515 340.821 106.4 340.821 108.864V126H332.981V94.976H340.821V98.84C341.867 97.496 343.192 96.4507 344.797 95.704C346.44 94.92 348.232 94.528 350.173 94.528Z" fill="#F76D66"/>
</svg>
